Coordinates
version=1
nRows=11
nColumns=40
inDegrees=yes

Units are S.I. units (second, meters, Newtons, ...)
If the header above contains a line with 'inDegrees', this indicates whether rotational values are in degrees (yes) or radians (no).

endheader
time	pelvis_tilt	pelvis_list	pelvis_rotation	pelvis_tx	pelvis_ty	pelvis_tz	hip_flexion_r	hip_adduction_r	hip_rotation_r	knee_angle_r	knee_angle_r_beta	ankle_angle_r	subtalar_angle_r	mtp_angle_r	hip_flexion_l	hip_adduction_l	hip_rotation_l	knee_angle_l	knee_angle_l_beta	ankle_angle_l	subtalar_angle_l	mtp_angle_l	lumbar_extension	lumbar_bending	lumbar_rotation	arm_flex_r	arm_add_r	arm_rot_r	elbow_flex_r	pro_sup_r	wrist_flex_r	wrist_dev_r	arm_flex_l	arm_add_l	arm_rot_l	elbow_flex_l	pro_sup_l	wrist_flex_l	wrist_dev_l
      1.70000000	     -2.66292515	     -4.55192843	      3.68451477	     -0.24867419	      0.98900443	     -1.01220157	     18.03670066	     -8.13241840	      7.65875632	     84.96387272	      1.48289932	    -21.33386838	      0.00000000	      0.00000000	      7.65078530	     -0.59365612	     -1.27858081	     12.46633639	      0.21757862	     -5.03367484	      0.00000000	      0.00000000	     -5.78281611	     -1.79761187	      4.39417278	     59.62683813	     -8.87903094	     26.13144798	     85.37324384	     87.22767695	      0.00000000	      0.00000000	     64.89520494	    -16.29528489	     34.07588990	     84.21368865	     74.24138453	      0.00000000	      0.00000000
      1.70500000	     -2.73684005	     -4.56504360	      3.65259096	     -0.24909035	      0.98885741	     -1.01205654	     18.16437724	     -8.10634325	      7.70057352	     85.03513592	      1.48414310	    -21.25114394	      0.00000000	      0.00000000	      7.88755975	     -0.62500082	     -1.23465914	     12.69302558	      0.22153509	     -5.14502106	      0.00000000	      0.00000000	     -5.82046820	     -1.80541853	      4.41132796	     59.76152334	     -8.85332814	     26.14684799	     85.26583714	     87.26605082	      0.00000000	      0.00000000	     65.02896886	    -16.32603515	     34.28983342	     84.30416790	     71.57724178	      0.00000000	      0.00000000
      1.71000000	     -2.77188701	     -4.59439249	      3.70197153	     -0.24946379	      0.98878378	     -1.01200684	     18.22105064	     -8.09989706	      7.63880443	     85.06057153	      1.48458704	    -21.31621031	      0.00000000	      0.00000000	      8.30483972	     -0.68820977	     -1.52824722	     13.38812653	      0.23366689	     -5.02742467	      0.00000000	      0.00000000	     -5.90775727	     -1.79138427	      4.36053084	     59.87313378	     -8.81367957	     26.11234169	     85.25657249	     87.26534724	      0.00000000	      0.00000000	     65.18198236	    -16.33618146	     34.46242243	     84.37944161	     69.48199976	      0.00000000	      0.00000000
      1.71500000	     -2.88469847	     -4.64256606	      3.67625186	     -0.24998889	      0.98854473	     -1.01175754	     18.37570400	     -8.00812704	      7.70979927	     85.09625863	      1.48520989	    -21.22796228	      0.00000000	      0.00000000	      8.53358846	     -0.75532536	     -1.40062391	     13.51078395	      0.23580766	     -4.91264540	      0.00000000	      0.00000000	     -5.91323525	     -1.78331877	      4.37060739	     60.05216378	     -8.79979666	     26.12235073	     85.12396019	     87.33647438	      0.00000000	      0.00000000	     65.38087094	    -16.37371843	     34.72627022	     84.39820328	     67.20235807	      0.00000000	      0.00000000
      1.72000000	     -2.94462156	     -4.69306627	      3.72337860	     -0.25042756	      0.98837026	     -1.01166943	     18.47294211	     -7.97818326	      7.64247424	     85.15325877	      1.48620473	    -21.23988924	      0.00000000	      0.00000000	      8.84580646	     -0.82356358	     -1.34198909	     13.92775274	      0.24308514	     -4.78368007	      0.00000000	      0.00000000	     -5.97231855	     -1.76014768	      4.35056384	     60.14003532	     -8.84350063	     26.09613843	     85.11160444	     87.29669163	      0.00000000	      0.00000000	     65.58296673	    -16.36726794	     34.91091904	     84.37211464	     65.88280469	      0.00000000	      0.00000000
      1.72500000	     -3.05963106	     -4.72909451	      3.71055667	     -0.25099292	      0.98806863	     -1.01140597	     18.65573077	     -7.90036431	      7.70017666	     85.25943177	      1.48805780	    -21.23239148	      0.00000000	      0.00000000	      9.29876671	     -0.90180457	     -1.40222647	     14.49530674	      0.25299083	     -4.72032663	      0.00000000	      0.00000000	     -5.98200428	     -1.76426675	      4.39137027	     60.25969602	     -8.86747484	     26.06464764	     85.16993744	     87.25632633	      0.00000000	      0.00000000	     65.76649580	    -16.33272086	     35.00799447	     84.28631593	     65.17573443	      0.00000000	      0.00000000
      1.73000000	     -3.22327909	     -4.83648177	      3.76657441	     -0.25170666	      0.98766542	     -1.01120043	     18.88457043	     -7.78685020	      7.64047727	     85.33341211	      1.48934900	    -21.28432053	      0.00000000	      0.00000000	      9.94633547	     -1.06056245	     -1.66189173	     15.29840664	      0.26700757	     -4.53958221	      0.00000000	      0.00000000	     -5.94671416	     -1.69768983	      4.40036379	     60.37127533	     -8.93824932	     25.99187551	     85.15358327	     87.31656138	      0.00000000	      0.00000000	     65.99551372	    -16.30357261	     35.24413172	     84.31500540	     63.89764870	      0.00000000	      0.00000000
      1.73500000	     -3.22661303	     -4.73917997	      3.53659103	     -0.25174342	      0.98754834	     -1.01081489	     18.94280326	     -7.83546466	      7.88580298	     85.38540674	      1.49025648	    -21.24249095	      0.00000000	      0.00000000	     10.06225192	     -1.02319772	     -1.98869842	     15.57008886	      0.27174932	     -4.45300112	      0.00000000	      0.00000000	     -6.02729384	     -1.82001252	      4.61081912	     60.47915048	     -8.85625182	     25.98452978	     85.03759404	     87.24365161	      0.00000000	      0.00000000	     66.11154915	    -16.23762726	     34.58056288	     83.76763529	     72.76414940	      0.00000000	      0.00000000
      1.74000000	     -3.43937771	     -4.82449222	      3.69973905	     -0.25266446	      0.98706473	     -1.01076197	     19.21459688	     -7.79902749	      7.74357839	     85.43984150	      1.49120655	    -21.45658313	      0.00000000	      0.00000000	     10.49114412	     -1.08477600	     -1.48802337	     15.78579806	      0.27551415	     -4.32083691	      0.00000000	      0.00000000	     -5.96405604	     -1.76620733	      4.42125992	     60.65102712	     -8.80319604	     25.95793403	     84.90266847	     87.24091486	      0.00000000	      0.00000000	     66.30025806	    -15.99933564	     34.51973507	     83.61206856	     70.52709212	      0.00000000	      0.00000000
      1.74500000	     -3.47858122	     -4.82106075	      3.72412991	     -0.25298663	      0.98690187	     -1.01065947	     19.25236402	     -7.80415662	      7.72738130	     85.46886348	      1.49171308	    -21.31583882	      0.00000000	      0.00000000	     10.64739656	     -1.08901542	     -1.32928100	     15.91298362	      0.27773396	     -4.51407729	      0.00000000	      0.00000000	     -6.04684604	     -1.81184361	      4.49118818	     60.68932212	     -8.87931725	     25.81803735	     84.99804590	     87.22023059	      0.00000000	      0.00000000	     66.45760910	    -15.85958834	     34.75700370	     83.59438800	     67.93021161	      0.00000000	      0.00000000
      1.75000000	     -3.61092853	     -4.91178911	      3.70074437	     -0.25353353	      0.98648046	     -1.01034248	     19.45046365	     -7.69031807	      7.69918560	     85.57096214	      1.49349503	    -21.16173788	      0.00000000	      0.00000000	     11.17378972	     -1.24233999	     -1.55770992	     16.59703467	      0.28967290	     -4.23971965	      0.00000000	      0.00000000	     -6.04732943	     -1.76418383	      4.57731177	     60.80492713	     -8.95890528	     25.82930885	     85.08336538	     87.23489179	      0.00000000	      0.00000000	     66.71806099	    -15.83630812	     34.57959528	     83.31508936	     73.08743190	      0.00000000	      0.00000000
